<svg xmlns="http://www.w3.org/2000/svg" xmlns:xlink="http://www.w3.org/1999/xlink" width="1920" zoomAndPan="magnify" viewBox="0 0 1440 809.999993" height="1080" preserveAspectRatio="xMidYMid meet" version="1.0"><defs><clipPath id="32ccc5b377"><path d="M 398.550781 101 L 628.800781 101 L 628.800781 313.800781 L 398.550781 313.800781 Z M 398.550781 101 " clip-rule="nonzero"/></clipPath><clipPath id="fc02423ff2"><path d="M 558 83.550781 L 576 83.550781 L 576 128 L 558 128 Z M 558 83.550781 " clip-rule="nonzero"/></clipPath><clipPath id="4dd67e3443"><path d="M 451 83.550781 L 470 83.550781 L 470 128 L 451 128 Z M 451 83.550781 " clip-rule="nonzero"/></clipPath><clipPath id="a4b1771a2b"><path d="M 669.375 249 L 736 249 L 736 296 L 669.375 296 Z M 669.375 249 " clip-rule="nonzero"/></clipPath><clipPath id="39c813cd5e"><path d="M 833 249 L 899.625 249 L 899.625 296 L 833 296 Z M 833 249 " clip-rule="nonzero"/></clipPath><clipPath id="f0b859237e"><path d="M 748 177.726562 L 820 177.726562 L 820 249 L 748 249 Z M 748 177.726562 " clip-rule="nonzero"/></clipPath><clipPath id="14918fa055"><path d="M 562.925781 494.71875 L 793.175781 494.71875 L 793.175781 724.96875 L 562.925781 724.96875 Z M 562.925781 494.71875 " clip-rule="nonzero"/></clipPath><clipPath id="3aefc93171"><path d="M 884.664062 495 L 1040.664062 495 L 1040.664062 724.96875 L 884.664062 724.96875 Z M 884.664062 495 " clip-rule="nonzero"/></clipPath></defs><rect x="-144" width="1728" fill="#ffffff" y="-80.999999" height="971.999992" fill-opacity="1"/><g clip-path="url(#32ccc5b377)"><path fill="#198754" d="M 416.078125 164.03125 L 611.410156 164.03125 L 611.410156 285.484375 C 611.410156 291.558594 606.484375 296.488281 600.40625 296.488281 L 427.082031 296.488281 C 421.007812 296.511719 416.078125 291.582031 416.078125 285.484375 Z M 420.578125 101.628906 C 408.410156 101.628906 398.550781 111.484375 398.550781 123.636719 L 398.550781 291.929688 C 398.550781 304.078125 408.410156 313.9375 420.578125 313.9375 L 606.910156 313.9375 C 619.082031 313.957031 628.941406 304.097656 628.941406 291.929688 L 628.941406 123.636719 C 628.941406 111.484375 619.082031 101.628906 606.910156 101.628906 L 585.679688 101.628906 L 585.679688 119.378906 C 585.597656 129.730469 577.152344 138.035156 566.824219 137.953125 C 556.597656 137.871094 548.332031 129.609375 548.25 119.378906 L 548.25 101.628906 L 479.238281 101.628906 L 479.238281 119.378906 C 479.15625 129.730469 470.710938 138.035156 460.359375 137.953125 C 450.15625 137.871094 441.890625 129.609375 441.808594 119.378906 L 441.808594 101.628906 L 420.578125 101.628906 " fill-opacity="1" fill-rule="nonzero"/></g><path fill="#198754" d="M 589.320312 254.292969 L 589.320312 273.992188 L 562.730469 273.992188 L 562.730469 254.292969 L 589.320312 254.292969 " fill-opacity="1" fill-rule="nonzero"/><path fill="#198754" d="M 547.800781 254.292969 L 547.800781 273.992188 L 521.210938 273.992188 L 521.210938 254.292969 L 547.800781 254.292969 " fill-opacity="1" fill-rule="nonzero"/><path fill="#198754" d="M 506.28125 254.292969 L 506.28125 273.992188 L 479.691406 273.992188 L 479.691406 254.292969 L 506.28125 254.292969 " fill-opacity="1" fill-rule="nonzero"/><path fill="#198754" d="M 464.757812 254.292969 L 464.757812 273.992188 L 438.167969 273.992188 L 438.167969 254.292969 L 464.757812 254.292969 " fill-opacity="1" fill-rule="nonzero"/><path fill="#198754" d="M 589.320312 220.421875 L 589.320312 240.117188 L 562.730469 240.117188 L 562.730469 220.421875 L 589.320312 220.421875 " fill-opacity="1" fill-rule="nonzero"/><path fill="#198754" d="M 547.800781 220.421875 L 547.800781 240.117188 L 521.210938 240.117188 L 521.210938 220.421875 L 547.800781 220.421875 " fill-opacity="1" fill-rule="nonzero"/><path fill="#198754" d="M 506.28125 220.421875 L 506.28125 240.117188 L 479.691406 240.117188 L 479.691406 220.421875 L 506.28125 220.421875 " fill-opacity="1" fill-rule="nonzero"/><path fill="#198754" d="M 464.757812 220.421875 L 464.757812 240.117188 L 438.167969 240.117188 L 438.167969 220.421875 L 464.757812 220.421875 " fill-opacity="1" fill-rule="nonzero"/><path fill="#198754" d="M 589.320312 186.550781 L 589.320312 206.246094 L 562.730469 206.246094 L 562.730469 186.550781 L 589.320312 186.550781 " fill-opacity="1" fill-rule="nonzero"/><path fill="#198754" d="M 547.800781 186.550781 L 547.800781 206.246094 L 521.210938 206.246094 L 521.210938 186.550781 L 547.800781 186.550781 " fill-opacity="1" fill-rule="nonzero"/><path fill="#198754" d="M 506.28125 186.550781 L 506.28125 206.246094 L 479.691406 206.246094 L 479.691406 186.550781 L 506.28125 186.550781 " fill-opacity="1" fill-rule="nonzero"/><path fill="#198754" d="M 464.757812 186.550781 L 464.757812 206.246094 L 438.167969 206.246094 L 438.167969 186.550781 L 464.757812 186.550781 " fill-opacity="1" fill-rule="nonzero"/><g clip-path="url(#fc02423ff2)"><path fill="#198754" d="M 575.578125 119.15625 L 575.578125 92.441406 C 575.578125 87.675781 571.710938 83.832031 566.945312 83.851562 C 562.199219 83.851562 558.355469 87.699219 558.355469 92.441406 L 558.355469 119.15625 C 558.355469 123.902344 562.242188 127.765625 566.984375 127.746094 C 571.730469 127.746094 575.578125 123.902344 575.578125 119.15625 " fill-opacity="1" fill-rule="nonzero"/></g><g clip-path="url(#4dd67e3443)"><path fill="#198754" d="M 469.136719 92.441406 C 469.136719 87.675781 465.269531 83.832031 460.523438 83.832031 C 455.757812 83.851562 451.914062 87.699219 451.914062 92.441406 L 451.914062 119.15625 C 451.914062 123.902344 455.757812 127.765625 460.523438 127.765625 C 465.289062 127.746094 469.136719 123.902344 469.136719 119.15625 L 469.136719 92.441406 " fill-opacity="1" fill-rule="nonzero"/></g><g clip-path="url(#a4b1771a2b)"><path fill="#198754" d="M 675.535156 295.136719 L 716.777344 295.136719 C 718.402344 295.136719 719.722656 293.828125 719.722656 292.195312 L 719.722656 288.074219 C 719.722656 275.820312 725.402344 264.886719 734.269531 257.773438 C 735.960938 256.417969 735.792969 253.734375 733.832031 252.816406 C 729.445312 250.757812 724.554688 249.609375 719.40625 249.609375 L 703.628906 249.609375 C 684.757812 249.609375 669.460938 264.910156 669.460938 283.777344 L 669.460938 289.078125 C 669.460938 292.425781 672.179688 295.136719 675.535156 295.136719 " fill-opacity="1" fill-rule="nonzero"/></g><path fill="#198754" d="M 684.59375 218.339844 C 684.59375 233.207031 696.644531 245.265625 711.515625 245.265625 C 726.386719 245.265625 738.441406 233.207031 738.441406 218.339844 C 738.441406 203.46875 726.386719 191.414062 711.515625 191.414062 C 696.644531 191.414062 684.59375 203.46875 684.59375 218.339844 " fill-opacity="1" fill-rule="nonzero"/><g clip-path="url(#39c813cd5e)"><path fill="#198754" d="M 865.511719 249.609375 L 849.703125 249.609375 C 844.332031 249.609375 839.230469 250.867188 834.707031 253.09375 C 832.757812 254.046875 832.433594 256.660156 834.125 258.039062 C 842.808594 265.152344 848.363281 275.964844 848.363281 288.074219 L 848.363281 292.195312 C 848.363281 293.828125 849.679688 295.136719 851.300781 295.136719 L 893.609375 295.136719 C 896.960938 295.136719 899.683594 292.425781 899.683594 289.078125 L 899.683594 283.777344 C 899.683594 264.910156 884.382812 249.609375 865.511719 249.609375 " fill-opacity="1" fill-rule="nonzero"/></g><path fill="#198754" d="M 857.613281 191.414062 C 842.75 191.414062 830.691406 203.46875 830.691406 218.339844 C 830.691406 233.207031 842.75 245.261719 857.613281 245.261719 C 872.492188 245.261719 884.539062 233.207031 884.539062 218.339844 C 884.539062 203.46875 872.492188 191.414062 857.613281 191.414062 " fill-opacity="1" fill-rule="nonzero"/><g clip-path="url(#f0b859237e)"><path fill="#198754" d="M 784.039062 248.4375 C 803.570312 248.4375 819.394531 232.609375 819.394531 213.085938 C 819.394531 193.558594 803.570312 177.730469 784.039062 177.730469 C 764.515625 177.730469 748.6875 193.558594 748.6875 213.085938 C 748.6875 232.609375 764.515625 248.4375 784.039062 248.4375 " fill-opacity="1" fill-rule="nonzero"/></g><path fill="#198754" d="M 728.8125 292.078125 L 728.8125 313.640625 C 728.8125 313.8125 728.945312 313.945312 729.105469 313.945312 L 838.976562 313.945312 C 839.132812 313.945312 839.265625 313.8125 839.265625 313.640625 L 839.265625 292.078125 C 839.265625 271.140625 822.285156 254.15625 801.347656 254.15625 L 766.738281 254.15625 C 745.792969 254.15625 728.8125 271.140625 728.8125 292.078125 " fill-opacity="1" fill-rule="nonzero"/><g clip-path="url(#14918fa055)"><path fill="#fbfffd" d="M 678.121094 511.816406 C 680.921875 511.820312 683.71875 511.941406 686.511719 512.183594 C 689.304688 512.425781 692.082031 512.785156 694.84375 513.265625 C 697.605469 513.742188 700.339844 514.339844 703.050781 515.054688 C 705.761719 515.769531 708.4375 516.597656 711.078125 517.539062 C 713.714844 518.484375 716.3125 519.539062 718.859375 520.703125 C 721.410156 521.871094 723.902344 523.140625 726.34375 524.519531 C 728.785156 525.902344 731.160156 527.382812 733.472656 528.964844 C 735.785156 530.546875 738.027344 532.226562 740.195312 534.003906 C 742.367188 535.777344 744.457031 537.640625 746.464844 539.597656 C 748.476562 541.550781 750.398438 543.585938 752.230469 545.707031 C 754.066406 547.824219 755.808594 550.019531 757.453125 552.285156 C 759.101562 554.554688 760.648438 556.886719 762.09375 559.289062 C 763.542969 561.691406 764.882812 564.148438 766.121094 566.664062 C 767.355469 569.179688 768.484375 571.742188 769.5 574.355469 C 770.515625 576.96875 771.417969 579.617188 772.207031 582.308594 C 772.996094 584.996094 773.671875 587.714844 774.226562 590.460938 C 774.785156 593.210938 775.222656 595.976562 775.539062 598.761719 C 775.859375 601.542969 776.058594 604.339844 776.140625 607.140625 C 776.21875 609.941406 776.179688 612.742188 776.019531 615.539062 C 775.859375 618.339844 775.582031 621.125 775.183594 623.898438 C 774.78125 626.675781 774.265625 629.425781 773.632812 632.15625 C 772.996094 634.886719 772.246094 637.585938 771.382812 640.25 C 770.515625 642.917969 769.535156 645.539062 768.445312 648.121094 C 767.355469 650.703125 766.15625 653.234375 764.847656 655.714844 C 763.542969 658.195312 762.128906 660.613281 760.613281 662.972656 C 759.101562 665.328125 757.488281 667.617188 755.777344 669.839844 C 754.066406 672.058594 752.261719 674.203125 750.367188 676.265625 C 748.472656 678.332031 746.492188 680.3125 744.429688 682.210938 C 742.363281 684.105469 740.222656 685.910156 738.003906 687.621094 C 735.785156 689.335938 733.496094 690.949219 731.140625 692.464844 C 728.78125 693.980469 726.363281 695.394531 723.886719 696.703125 C 721.40625 698.011719 718.878906 699.214844 716.296875 700.304688 C 714.816406 700.929688 713.324219 701.519531 711.816406 702.070312 C 710.304688 702.621094 708.785156 703.136719 707.253906 703.613281 C 705.71875 704.089844 704.175781 704.527344 702.621094 704.929688 C 701.0625 705.332031 699.5 705.691406 697.925781 706.015625 C 696.355469 706.339844 694.773438 706.625 693.1875 706.875 C 691.601562 707.121094 690.007812 707.328125 688.414062 707.496094 C 686.816406 707.664062 685.214844 707.792969 683.613281 707.882812 C 682.007812 707.972656 680.402344 708.023438 678.796875 708.035156 C 677.191406 708.046875 675.585938 708.019531 673.984375 707.949219 C 672.378906 707.882812 670.777344 707.773438 669.175781 707.628906 C 667.578125 707.484375 665.984375 707.296875 664.394531 707.074219 C 662.804688 706.847656 661.21875 706.585938 659.644531 706.28125 C 658.066406 705.980469 656.496094 705.636719 654.9375 705.257812 C 653.375 704.878906 651.824219 704.460938 650.285156 704.007812 C 648.746094 703.550781 647.21875 703.058594 645.703125 702.527344 C 644.1875 701.996094 642.683594 701.429688 641.195312 700.824219 C 639.710938 700.222656 638.238281 699.582031 636.78125 698.90625 C 635.324219 698.226562 633.886719 697.515625 632.464844 696.769531 C 631.042969 696.023438 629.640625 695.238281 628.257812 694.425781 C 626.875 693.609375 625.511719 692.757812 624.171875 691.875 C 622.828125 690.992188 621.511719 690.078125 620.214844 689.128906 C 618.917969 688.183594 617.644531 687.203125 616.398438 686.191406 C 615.148438 685.183594 613.925781 684.144531 612.726562 683.074219 C 611.53125 682.003906 610.359375 680.902344 609.21875 679.777344 C 608.074219 678.648438 606.957031 677.492188 605.871094 676.3125 C 604.785156 675.128906 603.730469 673.921875 602.703125 672.6875 C 601.675781 671.453125 600.675781 670.191406 599.710938 668.910156 C 598.746094 667.625 597.8125 666.320312 596.910156 664.992188 C 596.011719 663.664062 595.140625 662.3125 594.308594 660.941406 C 593.472656 659.570312 592.671875 658.175781 591.902344 656.765625 C 591.136719 655.355469 590.40625 653.925781 589.710938 652.480469 C 589.011719 651.03125 588.351562 649.570312 587.726562 648.089844 C 587.101562 646.609375 586.515625 645.117188 585.960938 643.609375 C 585.410156 642.101562 584.898438 640.578125 584.421875 639.046875 C 583.945312 637.511719 583.503906 635.96875 583.105469 634.414062 C 582.703125 632.859375 582.339844 631.292969 582.015625 629.722656 C 581.691406 628.148438 581.40625 626.570312 581.160156 624.984375 C 580.914062 623.394531 580.707031 621.804688 580.539062 620.207031 C 580.367188 618.609375 580.238281 617.007812 580.148438 615.40625 C 580.058594 613.804688 580.007812 612.199219 580 610.59375 C 579.988281 608.988281 580.015625 607.382812 580.082031 605.777344 C 580.152344 604.171875 580.257812 602.570312 580.402344 600.972656 C 580.550781 599.371094 580.734375 597.777344 580.960938 596.1875 C 581.183594 594.597656 581.449219 593.015625 581.75 591.4375 C 582.054688 589.859375 582.394531 588.292969 582.773438 586.730469 C 583.152344 585.171875 583.570312 583.621094 584.027344 582.082031 C 584.480469 580.539062 584.976562 579.011719 585.503906 577.496094 C 586.035156 575.980469 586.601562 574.480469 587.207031 572.992188 C 587.8125 571.503906 588.453125 570.03125 589.128906 568.574219 C 589.804688 567.117188 590.515625 565.679688 591.265625 564.257812 C 592.011719 562.835938 592.792969 561.433594 593.609375 560.050781 C 594.425781 558.667969 595.273438 557.304688 596.15625 555.964844 C 597.039062 554.625 597.957031 553.304688 598.902344 552.007812 C 599.851562 550.710938 600.828125 549.4375 601.839844 548.191406 C 602.851562 546.941406 603.890625 545.71875 604.960938 544.523438 C 606.03125 543.324219 607.128906 542.15625 608.257812 541.011719 C 609.386719 539.867188 610.539062 538.753906 611.722656 537.667969 C 612.90625 536.578125 614.113281 535.523438 615.347656 534.496094 C 616.582031 533.46875 617.839844 532.472656 619.125 531.507812 C 620.40625 530.539062 621.710938 529.609375 623.042969 528.707031 C 624.371094 527.804688 625.722656 526.9375 627.09375 526.101562 C 628.464844 525.265625 629.855469 524.464844 631.265625 523.699219 C 632.679688 522.933594 634.105469 522.199219 635.554688 521.503906 C 637 520.808594 638.464844 520.144531 639.941406 519.519531 C 645.980469 516.964844 652.214844 515.039062 658.640625 513.742188 C 665.070312 512.445312 671.5625 511.804688 678.121094 511.816406 M 678.121094 494.71875 C 614.5 494.71875 562.925781 546.296875 562.925781 609.914062 C 562.925781 673.53125 614.5 725.109375 678.121094 725.109375 C 741.738281 725.109375 793.316406 673.535156 793.316406 609.914062 C 793.316406 546.289062 741.738281 494.71875 678.121094 494.71875 Z M 678.121094 494.71875 " fill-opacity="1" fill-rule="nonzero"/></g><path fill="#fbfffd" d="M 710.753906 651.609375 C 709.617188 651.609375 708.527344 651.394531 707.480469 650.957031 C 706.433594 650.523438 705.507812 649.90625 704.707031 649.101562 L 672.070312 616.46875 C 671.269531 615.667969 670.652344 614.742188 670.21875 613.695312 C 669.785156 612.648438 669.570312 611.558594 669.570312 610.425781 L 669.570312 542.832031 C 669.570312 542.269531 669.625 541.714844 669.734375 541.164062 C 669.84375 540.613281 670.003906 540.078125 670.21875 539.558594 C 670.433594 539.039062 670.699219 538.546875 671.011719 538.082031 C 671.324219 537.613281 671.675781 537.183594 672.074219 536.785156 C 672.472656 536.386719 672.902344 536.035156 673.371094 535.722656 C 673.835938 535.410156 674.328125 535.144531 674.847656 534.929688 C 675.367188 534.714844 675.902344 534.554688 676.453125 534.445312 C 677.003906 534.335938 677.558594 534.28125 678.121094 534.28125 C 678.679688 534.28125 679.238281 534.335938 679.789062 534.445312 C 680.339844 534.554688 680.871094 534.714844 681.390625 534.929688 C 681.910156 535.144531 682.402344 535.410156 682.871094 535.722656 C 683.335938 536.035156 683.769531 536.386719 684.164062 536.785156 C 684.5625 537.183594 684.917969 537.613281 685.226562 538.082031 C 685.539062 538.546875 685.804688 539.039062 686.019531 539.558594 C 686.234375 540.078125 686.394531 540.613281 686.503906 541.164062 C 686.613281 541.714844 686.667969 542.269531 686.667969 542.832031 L 686.667969 606.886719 L 716.816406 637.035156 C 717.417969 637.632812 717.914062 638.304688 718.3125 639.050781 C 718.710938 639.796875 718.996094 640.582031 719.160156 641.414062 C 719.324219 642.242188 719.367188 643.078125 719.28125 643.917969 C 719.199219 644.761719 718.996094 645.574219 718.671875 646.355469 C 718.347656 647.136719 717.917969 647.851562 717.382812 648.507812 C 716.847656 649.160156 716.226562 649.722656 715.523438 650.191406 C 714.820312 650.660156 714.0625 651.019531 713.253906 651.265625 C 712.445312 651.507812 711.617188 651.632812 710.769531 651.632812 Z M 710.753906 651.609375 " fill-opacity="1" fill-rule="nonzero"/><g clip-path="url(#3aefc93171)"><path fill="#fbfffd" d="M 945.277344 512.355469 C 945.632812 502.808594 952.195312 496.023438 961.679688 495.121094 C 972.699219 494.714844 979.042969 501.894531 980.460938 512.355469 L 988.40625 512.34375 C 996.863281 512.324219 1004.289062 513.636719 1004.421875 523.867188 L 1020.871094 523.851562 C 1031.378906 523.84375 1040.433594 524.023438 1040.589844 537.304688 C 1040.746094 550.507812 1040.589844 563.730469 1040.589844 576.9375 L 1040.605469 706.910156 C 1040.613281 723.09375 1036.28125 725.109375 1022.152344 725.089844 L 963.578125 725.074219 L 903.71875 725.085938 C 889.851562 725.097656 884.875 723.792969 884.875 707.53125 L 884.828125 538.148438 C 884.667969 523.097656 895.152344 523.859375 906.800781 523.859375 L 920.863281 523.867188 C 920.964844 513.796875 929.246094 512.339844 937.296875 512.34375 Z M 961.679688 502.28125 C 946.609375 505.285156 957.0625 517.800781 950.023438 519.246094 C 945.101562 520.257812 931.382812 517.496094 928.832031 521.347656 C 927.3125 523.640625 927.949219 533.070312 927.941406 536.167969 L 964.183594 536.167969 L 986.308594 536.175781 C 989.921875 536.175781 993.625 536.351562 997.226562 536.167969 L 997.25 527.609375 C 997.261719 519.371094 996.621094 519.316406 988.441406 519.363281 L 979.808594 519.414062 C 973.167969 519.453125 972.394531 519.449219 973.058594 512.609375 C 973.652344 506.464844 967.40625 501.757812 961.679688 502.28125 Z M 896.285156 531.039062 C 890.863281 532.527344 891.992188 537 892.011719 541.371094 L 892.019531 682.578125 C 892.019531 686.457031 891.660156 712.921875 892.257812 714.519531 C 892.792969 715.957031 894.15625 717.207031 895.566406 717.773438 C 897.40625 718.515625 924.347656 718.128906 928.609375 718.128906 L 1010.378906 718.128906 C 1015.816406 718.128906 1021.292969 718.269531 1026.722656 718.109375 C 1032.460938 717.945312 1033.273438 715.054688 1033.316406 710.183594 L 1033.324219 542.570312 C 1033.320312 530.574219 1033.730469 531.015625 1020.914062 531.023438 L 1004.421875 531.039062 C 1004.515625 546.695312 1004.921875 543.375 988.59375 543.378906 L 938.308594 543.378906 C 921.53125 543.378906 920.777344 547.265625 920.863281 531.039062 Z M 896.285156 531.039062 " fill-opacity="1" fill-rule="nonzero"/></g><path fill="#fbfffd" d="M 964.183594 517.210938 C 957.578125 518.507812 955.820312 509.777344 961.679688 507.75 C 968.042969 507.265625 970.375 514.777344 964.183594 517.210938 Z M 964.183594 517.210938 " fill-opacity="1" fill-rule="nonzero"/><path fill="#fbfffd" d="M 1011.023438 576.210938 L 925.097656 576.195312 C 922.265625 576.207031 910.421875 577.757812 910.042969 573.253906 C 909.765625 569.988281 912.769531 569.257812 915.3125 569.070312 L 1001.527344 569.070312 C 1004.105469 569.066406 1012.382812 568.261719 1014.363281 569.734375 C 1017.949219 572.394531 1015.625 575.929688 1011.023438 576.210938 Z M 1011.023438 576.210938 " fill-opacity="1" fill-rule="nonzero"/><path fill="#fbfffd" d="M 1013.183594 601.0625 C 1009.949219 601.367188 1005.679688 601.070312 1002.324219 601.066406 L 936.832031 601.0625 C 929.605469 601.066406 922.347656 601.222656 915.125 601.0625 C 909.953125 600.945312 908.121094 596.140625 912.78125 594.011719 C 915.234375 593.90625 917.730469 594.007812 920.191406 594.007812 L 1002.160156 594.007812 C 1005.320312 594.007812 1010.78125 593.632812 1013.613281 594.273438 C 1017.222656 595.09375 1015.917969 599.65625 1013.183594 601.0625 Z M 1013.183594 601.0625 " fill-opacity="1" fill-rule="nonzero"/><path fill="#fbfffd" d="M 1012.351562 625.261719 L 925.960938 625.261719 C 923.070312 625.273438 914.089844 626.054688 911.785156 624.601562 C 908.605469 622.59375 910.3125 618.488281 913.730469 618.070312 L 1001.195312 618.074219 C 1004.59375 618.074219 1008.078125 617.910156 1011.46875 618.074219 C 1016.796875 618.332031 1017.28125 624.394531 1012.351562 625.261719 Z M 1012.351562 625.261719 " fill-opacity="1" fill-rule="nonzero"/><path fill="#fbfffd" d="M 1013.183594 649.890625 L 926.511719 649.894531 C 923.601562 649.898438 914.152344 650.625 911.773438 649.304688 C 908.683594 647.585938 910.238281 643.648438 913.152344 642.886719 C 918.085938 642.722656 923.082031 642.882812 928.023438 642.882812 L 994.308594 642.890625 C 999.902344 642.886719 1005.53125 642.734375 1011.121094 642.851562 C 1013.964844 642.914062 1014.953125 643.683594 1015.824219 646.453125 C 1015.398438 647.988281 1014.785156 649.285156 1013.183594 649.890625 Z M 1013.183594 649.890625 " fill-opacity="1" fill-rule="nonzero"/><path fill="#fbfffd" d="M 974.527344 674.515625 C 971.476562 674.667969 968.347656 674.519531 965.289062 674.519531 L 925.664062 674.511719 C 922.003906 674.511719 918.296875 674.632812 914.640625 674.480469 C 909.816406 674.28125 908.359375 669.175781 912.78125 667.359375 L 955.351562 667.351562 C 958.527344 667.351562 973.34375 667.011719 975.050781 667.621094 C 978.46875 668.835938 977.230469 673.273438 974.527344 674.515625 Z M 974.527344 674.515625 " fill-opacity="1" fill-rule="nonzero"/></svg>