<svg xmlns="http://www.w3.org/2000/svg" xmlns:xlink="http://www.w3.org/1999/xlink" width="296" zoomAndPan="magnify" viewBox="0 0 222 272.999983" height="364" preserveAspectRatio="xMidYMid meet" version="1.0"><defs><clipPath id="acdfe98e0e"><path d="M 18.519531 0 L 203.769531 0 L 203.769531 273 L 18.519531 273 Z M 18.519531 0 " clip-rule="nonzero"/></clipPath></defs><g clip-path="url(#acdfe98e0e)"><path fill="#ffffff" d="M 90.34375 20.898438 C 90.765625 9.585938 98.539062 1.546875 109.777344 0.476562 C 122.835938 -0.00390625 130.355469 8.5 132.035156 20.898438 L 141.449219 20.882812 C 151.46875 20.859375 160.269531 22.414062 160.425781 34.539062 L 179.917969 34.523438 C 192.367188 34.511719 203.097656 34.722656 203.285156 50.460938 C 203.46875 66.105469 203.285156 81.773438 203.285156 97.421875 L 203.304688 251.433594 C 203.3125 270.609375 198.175781 273 181.4375 272.976562 L 112.03125 272.960938 L 41.101562 272.976562 C 24.664062 272.988281 18.773438 271.4375 18.773438 252.171875 L 18.714844 51.460938 C 18.523438 33.628906 30.945312 34.53125 44.75 34.527344 L 61.414062 34.539062 C 61.535156 22.605469 71.347656 20.878906 80.886719 20.882812 Z M 109.777344 8.960938 C 91.921875 12.519531 104.3125 27.351562 95.96875 29.0625 C 90.136719 30.261719 73.878906 26.992188 70.859375 31.550781 C 69.058594 34.269531 69.808594 45.441406 69.800781 49.113281 L 112.746094 49.113281 L 138.964844 49.125 C 143.242188 49.125 147.632812 49.332031 151.898438 49.113281 L 151.929688 38.972656 C 151.945312 29.214844 151.179688 29.144531 141.488281 29.199219 L 131.261719 29.261719 C 123.390625 29.308594 122.472656 29.304688 123.261719 21.199219 C 123.96875 13.917969 116.5625 8.339844 109.777344 8.960938 Z M 32.289062 43.035156 C 25.867188 44.800781 27.203125 50.105469 27.226562 55.28125 L 27.234375 222.605469 C 27.234375 227.199219 26.808594 258.558594 27.515625 260.449219 C 28.152344 262.15625 29.769531 263.636719 31.4375 264.308594 C 33.621094 265.183594 65.542969 264.726562 70.59375 264.726562 L 167.488281 264.726562 C 173.925781 264.730469 180.417969 264.894531 186.851562 264.707031 C 193.652344 264.511719 194.613281 261.085938 194.667969 255.3125 L 194.671875 56.703125 C 194.671875 42.488281 195.15625 43.011719 179.96875 43.019531 L 160.425781 43.035156 C 160.539062 61.585938 161.019531 57.65625 141.671875 57.660156 L 82.085938 57.660156 C 62.203125 57.660156 61.3125 62.265625 61.414062 43.035156 Z M 32.289062 43.035156 " fill-opacity="1" fill-rule="nonzero"/></g><path fill="#ffffff" d="M 112.746094 26.648438 C 104.917969 28.1875 102.839844 17.84375 109.777344 15.445312 C 117.316406 14.867188 120.085938 23.769531 112.746094 26.648438 Z M 112.746094 26.648438 " fill-opacity="1" fill-rule="nonzero"/><path fill="#ffffff" d="M 168.25 96.5625 L 66.433594 96.546875 C 63.074219 96.558594 49.042969 98.398438 48.589844 93.058594 C 48.265625 89.1875 51.824219 88.324219 54.835938 88.105469 L 156.996094 88.101562 C 160.050781 88.097656 169.859375 87.144531 172.207031 88.886719 C 176.457031 92.039062 173.703125 96.230469 168.25 96.5625 Z M 168.25 96.5625 " fill-opacity="1" fill-rule="nonzero"/><path fill="#ffffff" d="M 170.808594 126.011719 C 166.976562 126.375 161.917969 126.023438 157.941406 126.019531 L 80.335938 126.011719 C 71.773438 126.015625 63.171875 126.199219 54.613281 126.011719 C 48.488281 125.875 46.3125 120.179688 51.835938 117.65625 C 54.742188 117.535156 57.703125 117.652344 60.617188 117.652344 L 157.746094 117.652344 C 161.488281 117.652344 167.960938 117.207031 171.316406 117.96875 C 175.59375 118.9375 174.046875 124.347656 170.808594 126.011719 Z M 170.808594 126.011719 " fill-opacity="1" fill-rule="nonzero"/><path fill="#ffffff" d="M 169.820312 154.6875 L 67.453125 154.6875 C 64.027344 154.699219 53.390625 155.625 50.660156 153.902344 C 46.890625 151.523438 48.914062 146.660156 52.960938 146.164062 L 156.601562 146.171875 C 160.628906 146.171875 164.761719 145.972656 168.777344 146.167969 C 175.089844 146.472656 175.667969 153.660156 169.820312 154.6875 Z M 169.820312 154.6875 " fill-opacity="1" fill-rule="nonzero"/><path fill="#ffffff" d="M 170.808594 183.871094 L 68.105469 183.875 C 64.65625 183.878906 53.460938 184.738281 50.644531 183.175781 C 46.984375 181.140625 48.824219 176.472656 52.273438 175.574219 C 58.121094 175.378906 64.042969 175.566406 69.898438 175.566406 L 148.445312 175.574219 C 155.070312 175.574219 161.742188 175.390625 168.367188 175.53125 C 171.734375 175.601562 172.90625 176.515625 173.9375 179.796875 C 173.433594 181.613281 172.707031 183.15625 170.808594 183.871094 Z M 170.808594 183.871094 " fill-opacity="1" fill-rule="nonzero"/><path fill="#ffffff" d="M 125.003906 213.046875 C 121.390625 213.226562 117.679688 213.054688 114.054688 213.054688 L 67.105469 213.046875 C 62.765625 213.046875 58.375 213.191406 54.042969 213.007812 C 48.324219 212.773438 46.597656 206.722656 51.835938 204.570312 L 102.28125 204.5625 C 106.042969 204.5625 123.597656 204.15625 125.625 204.878906 C 129.671875 206.320312 128.207031 211.578125 125.003906 213.046875 Z M 125.003906 213.046875 " fill-opacity="1" fill-rule="nonzero"/></svg>