<svg xmlns="http://www.w3.org/2000/svg" xmlns:xlink="http://www.w3.org/1999/xlink" width="296" zoomAndPan="magnify" viewBox="0 0 222 272.999983" height="364" preserveAspectRatio="xMidYMid meet" version="1.0"><defs><clipPath id="b9c6162c37"><path d="M 0 22.21875 L 222 22.21875 L 222 244.21875 L 0 244.21875 Z M 0 22.21875 " clip-rule="nonzero"/></clipPath></defs><g clip-path="url(#b9c6162c37)"><path fill="#ffffff" d="M 111 38.695312 C 113.699219 38.699219 116.398438 38.816406 119.085938 39.046875 C 121.777344 39.28125 124.453125 39.628906 127.117188 40.089844 C 129.777344 40.554688 132.414062 41.128906 135.023438 41.816406 C 137.636719 42.503906 140.214844 43.300781 142.757812 44.210938 C 145.300781 45.121094 147.800781 46.136719 150.257812 47.257812 C 152.714844 48.382812 155.117188 49.609375 157.46875 50.9375 C 159.820312 52.265625 162.109375 53.695312 164.339844 55.21875 C 166.566406 56.746094 168.726562 58.363281 170.816406 60.074219 C 172.90625 61.785156 174.921875 63.582031 176.855469 65.464844 C 178.792969 67.347656 180.644531 69.308594 182.414062 71.351562 C 184.179688 73.390625 185.859375 75.503906 187.445312 77.691406 C 189.03125 79.875 190.523438 82.125 191.917969 84.4375 C 193.3125 86.753906 194.605469 89.121094 195.796875 91.546875 C 196.988281 93.96875 198.074219 96.441406 199.050781 98.957031 C 200.03125 101.472656 200.902344 104.027344 201.664062 106.621094 C 202.421875 109.210938 203.070312 111.832031 203.605469 114.476562 C 204.144531 117.125 204.566406 119.789062 204.875 122.472656 C 205.179688 125.15625 205.375 127.847656 205.449219 130.546875 C 205.527344 133.246094 205.488281 135.945312 205.335938 138.640625 C 205.179688 141.339844 204.910156 144.023438 204.527344 146.695312 C 204.144531 149.371094 203.644531 152.023438 203.035156 154.652344 C 202.421875 157.285156 201.699219 159.882812 200.863281 162.453125 C 200.03125 165.019531 199.089844 167.550781 198.039062 170.039062 C 196.984375 172.527344 195.832031 174.964844 194.570312 177.351562 C 193.3125 179.742188 191.949219 182.074219 190.492188 184.34375 C 189.03125 186.617188 187.476562 188.824219 185.828125 190.964844 C 184.179688 193.101562 182.441406 195.167969 180.617188 197.15625 C 178.792969 199.148438 176.882812 201.054688 174.894531 202.882812 C 172.90625 204.710938 170.84375 206.449219 168.703125 208.097656 C 166.566406 209.75 164.359375 211.304688 162.089844 212.765625 C 159.816406 214.226562 157.488281 215.589844 155.097656 216.851562 C 152.710938 218.109375 150.273438 219.269531 147.785156 220.320312 C 146.359375 220.921875 144.921875 221.488281 143.46875 222.019531 C 142.015625 222.550781 140.550781 223.046875 139.070312 223.507812 C 137.59375 223.964844 136.105469 224.390625 134.609375 224.777344 C 133.109375 225.160156 131.601562 225.511719 130.085938 225.824219 C 128.570312 226.136719 127.050781 226.410156 125.519531 226.648438 C 123.992188 226.886719 122.457031 227.085938 120.917969 227.25 C 119.378906 227.410156 117.835938 227.535156 116.292969 227.621094 C 114.746094 227.707031 113.203125 227.757812 111.652344 227.769531 C 110.105469 227.777344 108.558594 227.75 107.015625 227.6875 C 105.46875 227.621094 103.925781 227.519531 102.382812 227.375 C 100.84375 227.234375 99.304688 227.058594 97.773438 226.839844 C 96.242188 226.625 94.714844 226.371094 93.195312 226.078125 C 91.675781 225.789062 90.164062 225.460938 88.660156 225.09375 C 87.15625 224.726562 85.664062 224.324219 84.179688 223.886719 C 82.695312 223.449219 81.222656 222.972656 79.765625 222.460938 C 78.304688 221.949219 76.855469 221.402344 75.421875 220.820312 C 73.988281 220.238281 72.570312 219.621094 71.167969 218.96875 C 69.761719 218.316406 68.378906 217.632812 67.007812 216.914062 C 65.636719 216.191406 64.285156 215.4375 62.953125 214.652344 C 61.621094 213.867188 60.308594 213.046875 59.015625 212.195312 C 57.722656 211.347656 56.453125 210.464844 55.203125 209.550781 C 53.953125 208.636719 52.726562 207.695312 51.523438 206.722656 C 50.324219 205.75 49.144531 204.746094 47.992188 203.714844 C 46.835938 202.683594 45.707031 201.625 44.605469 200.539062 C 43.503906 199.453125 42.429688 198.339844 41.382812 197.199219 C 40.335938 196.058594 39.320312 194.894531 38.328125 193.707031 C 37.339844 192.515625 36.378906 191.304688 35.449219 190.066406 C 34.519531 188.832031 33.617188 187.574219 32.75 186.292969 C 31.882812 185.011719 31.042969 183.710938 30.238281 182.386719 C 29.433594 181.066406 28.664062 179.726562 27.925781 178.367188 C 27.1875 177.007812 26.480469 175.628906 25.808594 174.234375 C 25.136719 172.839844 24.5 171.433594 23.898438 170.007812 C 23.296875 168.582031 22.730469 167.140625 22.199219 165.6875 C 21.667969 164.234375 21.171875 162.769531 20.714844 161.292969 C 20.253906 159.8125 19.832031 158.328125 19.445312 156.828125 C 19.058594 155.328125 18.710938 153.824219 18.398438 152.308594 C 18.085938 150.792969 17.808594 149.269531 17.570312 147.742188 C 17.335938 146.210938 17.132812 144.675781 16.972656 143.136719 C 16.808594 141.601562 16.683594 140.058594 16.597656 138.511719 C 16.511719 136.96875 16.464844 135.421875 16.453125 133.875 C 16.441406 132.328125 16.46875 130.78125 16.535156 129.234375 C 16.597656 127.6875 16.703125 126.144531 16.84375 124.605469 C 16.984375 123.0625 17.164062 121.527344 17.378906 119.996094 C 17.597656 118.460938 17.851562 116.9375 18.140625 115.417969 C 18.433594 113.898438 18.761719 112.386719 19.125 110.882812 C 19.492188 109.378906 19.894531 107.882812 20.332031 106.402344 C 20.773438 104.917969 21.246094 103.445312 21.757812 101.984375 C 22.269531 100.523438 22.816406 99.078125 23.398438 97.644531 C 23.980469 96.210938 24.597656 94.789062 25.25 93.386719 C 25.902344 91.984375 26.589844 90.597656 27.308594 89.226562 C 28.027344 87.859375 28.78125 86.507812 29.566406 85.175781 C 30.355469 83.839844 31.171875 82.527344 32.023438 81.238281 C 32.875 79.945312 33.757812 78.671875 34.667969 77.421875 C 35.582031 76.175781 36.527344 74.949219 37.5 73.746094 C 38.472656 72.542969 39.472656 71.363281 40.503906 70.210938 C 41.535156 69.058594 42.59375 67.929688 43.683594 66.828125 C 44.769531 65.726562 45.882812 64.652344 47.019531 63.605469 C 48.160156 62.558594 49.324219 61.539062 50.515625 60.550781 C 51.703125 59.558594 52.917969 58.597656 54.152344 57.667969 C 55.390625 56.738281 56.648438 55.839844 57.929688 54.96875 C 59.207031 54.101562 60.511719 53.265625 61.832031 52.460938 C 63.152344 51.65625 64.492188 50.882812 65.855469 50.144531 C 67.214844 49.40625 68.589844 48.703125 69.984375 48.03125 C 71.378906 47.359375 72.789062 46.722656 74.214844 46.121094 C 80.03125 43.65625 86.039062 41.800781 92.230469 40.550781 C 98.425781 39.300781 104.683594 38.683594 111 38.695312 M 111 22.21875 C 49.699219 22.21875 0 71.917969 0 133.21875 C 0 194.523438 49.699219 244.21875 111 244.21875 C 172.300781 244.21875 222 194.527344 222 133.21875 C 222 71.914062 172.300781 22.21875 111 22.21875 Z M 111 22.21875 " fill-opacity="1" fill-rule="nonzero"/></g><path fill="#ffffff" d="M 142.445312 173.398438 C 141.351562 173.398438 140.300781 173.1875 139.292969 172.769531 C 138.28125 172.351562 137.390625 171.757812 136.621094 170.980469 L 105.171875 139.539062 C 104.402344 138.765625 103.804688 137.875 103.386719 136.867188 C 102.96875 135.855469 102.761719 134.804688 102.761719 133.714844 L 102.761719 68.582031 C 102.761719 68.039062 102.816406 67.503906 102.921875 66.972656 C 103.027344 66.441406 103.183594 65.925781 103.390625 65.425781 C 103.597656 64.929688 103.847656 64.453125 104.148438 64.003906 C 104.449219 63.554688 104.792969 63.136719 105.175781 62.753906 C 105.558594 62.371094 105.972656 62.03125 106.421875 61.730469 C 106.871094 61.429688 107.347656 61.175781 107.847656 60.96875 C 108.347656 60.761719 108.863281 60.605469 109.394531 60.5 C 109.921875 60.394531 110.460938 60.34375 111 60.34375 C 111.539062 60.34375 112.078125 60.394531 112.605469 60.5 C 113.136719 60.605469 113.652344 60.761719 114.152344 60.96875 C 114.652344 61.175781 115.128906 61.429688 115.578125 61.730469 C 116.027344 62.03125 116.441406 62.371094 116.824219 62.753906 C 117.207031 63.136719 117.550781 63.554688 117.851562 64.003906 C 118.148438 64.453125 118.402344 64.929688 118.609375 65.425781 C 118.816406 65.925781 118.972656 66.441406 119.078125 66.972656 C 119.183594 67.503906 119.238281 68.039062 119.238281 68.582031 L 119.238281 130.300781 L 148.289062 159.351562 C 148.867188 159.929688 149.347656 160.578125 149.730469 161.296875 C 150.113281 162.015625 150.386719 162.773438 150.546875 163.570312 C 150.703125 164.371094 150.746094 165.175781 150.664062 165.988281 C 150.585938 166.800781 150.390625 167.582031 150.078125 168.332031 C 149.765625 169.085938 149.351562 169.777344 148.832031 170.40625 C 148.316406 171.039062 147.71875 171.578125 147.039062 172.03125 C 146.363281 172.484375 145.632812 172.828125 144.855469 173.066406 C 144.074219 173.300781 143.277344 173.417969 142.460938 173.417969 Z M 142.445312 173.398438 " fill-opacity="1" fill-rule="nonzero"/></svg>