<svg xmlns="http://www.w3.org/2000/svg" xmlns:xlink="http://www.w3.org/1999/xlink" width="296" zoomAndPan="magnify" viewBox="0 0 222 272.999983" height="364" preserveAspectRatio="xMidYMid meet" version="1.0"><defs><clipPath id="a62beeeeca"><path d="M 0 39 L 222 39 L 222 244.195312 L 0 244.195312 Z M 0 39 " clip-rule="nonzero"/></clipPath><clipPath id="5c52896050"><path d="M 153 22.199219 L 171 22.199219 L 171 65 L 153 65 Z M 153 22.199219 " clip-rule="nonzero"/></clipPath><clipPath id="9ff6173477"><path d="M 51 22.199219 L 69 22.199219 L 69 65 L 51 65 Z M 51 22.199219 " clip-rule="nonzero"/></clipPath></defs><g clip-path="url(#a62beeeeca)"><path fill="#198754" d="M 16.890625 99.75 L 205.109375 99.75 L 205.109375 216.78125 C 205.109375 222.632812 200.359375 227.382812 194.507812 227.382812 L 27.492188 227.382812 C 21.640625 227.402344 16.890625 222.652344 16.890625 216.78125 Z M 21.226562 39.617188 C 9.5 39.617188 0 49.117188 0 60.824219 L 0 222.988281 C 0 234.695312 9.5 244.195312 21.226562 244.195312 L 200.773438 244.195312 C 212.5 244.214844 222 234.714844 222 222.988281 L 222 60.824219 C 222 49.117188 212.5 39.617188 200.773438 39.617188 L 180.316406 39.617188 L 180.316406 56.726562 C 180.238281 66.699219 172.097656 74.699219 162.144531 74.621094 C 152.289062 74.542969 144.328125 66.582031 144.25 56.726562 L 144.25 39.617188 L 77.75 39.617188 L 77.75 56.726562 C 77.671875 66.699219 69.53125 74.699219 59.558594 74.621094 C 49.726562 74.542969 41.761719 66.582031 41.683594 56.726562 L 41.683594 39.617188 L 21.226562 39.617188 " fill-opacity="1" fill-rule="nonzero"/></g><path fill="#198754" d="M 183.824219 186.726562 L 183.824219 205.703125 L 158.203125 205.703125 L 158.203125 186.726562 L 183.824219 186.726562 " fill-opacity="1" fill-rule="nonzero"/><path fill="#198754" d="M 143.816406 186.726562 L 143.816406 205.703125 L 118.195312 205.703125 L 118.195312 186.726562 L 143.816406 186.726562 " fill-opacity="1" fill-rule="nonzero"/><path fill="#198754" d="M 103.804688 186.726562 L 103.804688 205.703125 L 78.183594 205.703125 L 78.183594 186.726562 L 103.804688 186.726562 " fill-opacity="1" fill-rule="nonzero"/><path fill="#198754" d="M 63.796875 186.726562 L 63.796875 205.703125 L 38.175781 205.703125 L 38.175781 186.726562 L 63.796875 186.726562 " fill-opacity="1" fill-rule="nonzero"/><path fill="#198754" d="M 183.824219 154.085938 L 183.824219 173.066406 L 158.203125 173.066406 L 158.203125 154.085938 L 183.824219 154.085938 " fill-opacity="1" fill-rule="nonzero"/><path fill="#198754" d="M 143.816406 154.085938 L 143.816406 173.066406 L 118.195312 173.066406 L 118.195312 154.085938 L 143.816406 154.085938 " fill-opacity="1" fill-rule="nonzero"/><path fill="#198754" d="M 103.804688 154.085938 L 103.804688 173.066406 L 78.183594 173.066406 L 78.183594 154.085938 L 103.804688 154.085938 " fill-opacity="1" fill-rule="nonzero"/><path fill="#198754" d="M 63.796875 154.085938 L 63.796875 173.066406 L 38.175781 173.066406 L 38.175781 154.085938 L 63.796875 154.085938 " fill-opacity="1" fill-rule="nonzero"/><path fill="#198754" d="M 183.824219 121.449219 L 183.824219 140.429688 L 158.203125 140.429688 L 158.203125 121.449219 L 183.824219 121.449219 " fill-opacity="1" fill-rule="nonzero"/><path fill="#198754" d="M 143.816406 121.449219 L 143.816406 140.429688 L 118.195312 140.429688 L 118.195312 121.449219 L 143.816406 121.449219 " fill-opacity="1" fill-rule="nonzero"/><path fill="#198754" d="M 103.804688 121.449219 L 103.804688 140.429688 L 78.183594 140.429688 L 78.183594 121.449219 L 103.804688 121.449219 " fill-opacity="1" fill-rule="nonzero"/><path fill="#198754" d="M 63.796875 121.449219 L 63.796875 140.429688 L 38.175781 140.429688 L 38.175781 121.449219 L 63.796875 121.449219 " fill-opacity="1" fill-rule="nonzero"/><g clip-path="url(#5c52896050)"><path fill="#198754" d="M 170.578125 56.507812 L 170.578125 30.769531 C 170.578125 26.175781 166.855469 22.472656 162.261719 22.492188 C 157.691406 22.492188 153.984375 26.195312 153.984375 30.769531 L 153.984375 56.507812 C 153.984375 61.082031 157.730469 64.804688 162.300781 64.785156 C 166.875 64.785156 170.578125 61.082031 170.578125 56.507812 " fill-opacity="1" fill-rule="nonzero"/></g><g clip-path="url(#9ff6173477)"><path fill="#198754" d="M 68.015625 30.769531 C 68.015625 26.175781 64.289062 22.472656 59.71875 22.472656 C 55.125 22.492188 51.421875 26.195312 51.421875 30.769531 L 51.421875 56.507812 C 51.421875 61.082031 55.125 64.804688 59.71875 64.804688 C 64.308594 64.785156 68.015625 61.082031 68.015625 56.507812 L 68.015625 30.769531 " fill-opacity="1" fill-rule="nonzero"/></g></svg>