<svg xmlns="http://www.w3.org/2000/svg" xmlns:xlink="http://www.w3.org/1999/xlink" width="296" zoomAndPan="magnify" viewBox="0 0 222 272.999983" height="364" preserveAspectRatio="xMidYMid meet" version="1.0"><defs><clipPath id="1cdba74f7e"><path d="M 76 70.871094 L 145 70.871094 L 145 139 L 76 139 Z M 76 70.871094 " clip-rule="nonzero"/></clipPath><clipPath id="752f2fc11c"><path d="M 57 144 L 164 144 L 164 202.121094 L 57 202.121094 Z M 57 144 " clip-rule="nonzero"/></clipPath></defs><path fill="#198754" d="M 5.941406 184 L 45.679688 184 C 47.246094 184 48.515625 182.738281 48.515625 181.167969 L 48.515625 177.191406 C 48.515625 165.386719 53.992188 154.851562 62.535156 148 C 64.164062 146.695312 64 144.105469 62.113281 143.222656 C 57.886719 141.238281 53.171875 140.132812 48.210938 140.132812 L 33.007812 140.132812 C 14.828125 140.132812 0.0898438 154.875 0.0898438 173.054688 L 0.0898438 178.160156 C 0.0898438 181.386719 2.710938 184 5.941406 184 " fill-opacity="1" fill-rule="nonzero"/><path fill="#198754" d="M 14.667969 110.003906 C 14.667969 124.332031 26.28125 135.945312 40.609375 135.945312 C 54.9375 135.945312 66.554688 124.332031 66.554688 110.003906 C 66.554688 95.675781 54.9375 84.058594 40.609375 84.058594 C 26.28125 84.058594 14.667969 95.675781 14.667969 110.003906 " fill-opacity="1" fill-rule="nonzero"/><path fill="#198754" d="M 188.988281 140.132812 L 173.757812 140.132812 C 168.582031 140.132812 163.664062 141.34375 159.308594 143.488281 C 157.429688 144.410156 157.117188 146.925781 158.746094 148.253906 C 167.113281 155.109375 172.464844 165.527344 172.464844 177.191406 L 172.464844 181.167969 C 172.464844 182.742188 173.734375 184 175.296875 184 L 216.0625 184 C 219.292969 184 221.914062 181.386719 221.914062 178.160156 L 221.914062 173.054688 C 221.914062 154.875 207.171875 140.132812 188.988281 140.132812 " fill-opacity="1" fill-rule="nonzero"/><path fill="#198754" d="M 181.378906 84.058594 C 167.058594 84.058594 155.4375 95.675781 155.4375 110.003906 C 155.4375 124.332031 167.058594 135.945312 181.378906 135.945312 C 195.714844 135.945312 207.320312 124.332031 207.320312 110.003906 C 207.320312 95.675781 195.714844 84.058594 181.378906 84.058594 " fill-opacity="1" fill-rule="nonzero"/><g clip-path="url(#1cdba74f7e)"><path fill="#198754" d="M 110.488281 139 C 129.308594 139 144.550781 123.753906 144.550781 104.941406 C 144.550781 86.125 129.308594 70.875 110.488281 70.875 C 91.675781 70.875 76.425781 86.125 76.425781 104.941406 C 76.425781 123.753906 91.675781 139 110.488281 139 " fill-opacity="1" fill-rule="nonzero"/></g><g clip-path="url(#752f2fc11c)"><path fill="#198754" d="M 57.277344 181.050781 L 57.277344 201.828125 C 57.277344 201.992188 57.402344 202.121094 57.558594 202.121094 L 163.421875 202.121094 C 163.570312 202.121094 163.699219 201.992188 163.699219 201.828125 L 163.699219 181.050781 C 163.699219 160.875 147.339844 144.515625 127.164062 144.515625 L 93.820312 144.515625 C 73.636719 144.515625 57.277344 160.875 57.277344 181.050781 " fill-opacity="1" fill-rule="nonzero"/></g></svg>