<svg xmlns="http://www.w3.org/2000/svg" xmlns:xlink="http://www.w3.org/1999/xlink" width="296" zoomAndPan="magnify" viewBox="0 0 222 272.999983" height="364" preserveAspectRatio="xMidYMid meet" version="1.0"><defs><clipPath id="d7e077c77f"><path d="M 96 72 L 186 72 L 186 240.464844 L 96 240.464844 Z M 96 72 " clip-rule="nonzero"/></clipPath></defs><g clip-path="url(#d7e077c77f)"><path fill="#007a47" d="M 100.292969 240.179688 C 98.328125 240.179688 96.722656 238.578125 96.722656 236.609375 C 96.722656 178.277344 100.597656 141.917969 180.054688 73.292969 C 181.53125 72.011719 183.789062 72.164062 185.085938 73.671875 C 186.371094 75.164062 186.203125 77.40625 184.710938 78.703125 C 107.613281 145.289062 103.863281 180.355469 103.863281 236.609375 C 103.863281 238.578125 102.257812 240.179688 100.292969 240.179688 " fill-opacity="1" fill-rule="nonzero"/></g><path fill="#007a47" d="M 104.640625 185.960938 C 103.945312 185.960938 103.25 185.765625 102.621094 185.332031 C 101.003906 184.214844 100.585938 182 101.699219 180.367188 C 110.859375 167.066406 123.421875 164.027344 136.722656 160.808594 C 153.550781 156.722656 172.609375 152.109375 193.941406 127.207031 C 207.253906 111.691406 208.96875 87.960938 210.476562 67.019531 C 211.089844 58.542969 211.675781 50.417969 212.972656 43.152344 C 207.507812 45.242188 200.355469 47.195312 192.042969 49.453125 C 164.105469 57.050781 125.847656 67.46875 110.59375 94.347656 C 103.09375 107.5625 101.980469 123.875 107.304688 142.851562 C 107.835938 144.746094 106.71875 146.726562 104.824219 147.257812 C 102.957031 147.785156 100.960938 146.671875 100.417969 144.773438 C 94.589844 123.902344 95.914062 105.765625 104.390625 90.832031 C 121.109375 61.359375 161.023438 50.5 190.175781 42.566406 C 201.707031 39.429688 211.675781 36.710938 216.09375 33.769531 C 217.335938 32.933594 218.964844 32.976562 220.179688 33.851562 C 221.378906 34.746094 221.921875 36.277344 221.503906 37.714844 C 219.160156 45.925781 218.410156 56.425781 217.601562 67.535156 C 216.011719 89.578125 214.210938 114.550781 199.363281 131.863281 C 176.527344 158.507812 155.390625 163.625 138.410156 167.738281 C 125.429688 170.886719 115.183594 173.371094 107.585938 184.425781 C 106.886719 185.429688 105.773438 185.960938 104.640625 185.960938 " fill-opacity="1" fill-rule="nonzero"/><path fill="#007a47" d="M 101.019531 211.847656 C 99.636719 211.847656 98.339844 211.054688 97.742188 209.714844 C 94.1875 201.714844 89.097656 192.609375 83.03125 183.394531 C 68.601562 161.40625 50.367188 140.96875 37.636719 132.507812 C 36.007812 131.417969 35.558594 129.203125 36.648438 127.558594 C 37.734375 125.910156 39.953125 125.464844 41.597656 126.566406 C 55.246094 135.644531 73.859375 156.417969 89 179.476562 C 95.273438 189 100.558594 198.464844 104.265625 206.816406 C 105.074219 208.613281 104.253906 210.734375 102.453125 211.527344 C 101.980469 211.738281 101.492188 211.847656 101.019531 211.847656 " fill-opacity="1" fill-rule="nonzero"/><path fill="#007a47" d="M 86.015625 184.996094 C 84.050781 184.996094 82.445312 183.40625 82.445312 181.429688 C 82.40625 142.726562 81.414062 131 59.261719 118.355469 C 46.421875 111.023438 40.480469 109.558594 32.96875 107.6875 C 27.390625 106.296875 20.683594 104.636719 9.851562 100.246094 C 11.105469 104.816406 12.109375 109.851562 13.15625 115.078125 C 18.605469 142.40625 24.78125 173.371094 68.378906 175.949219 C 70.34375 176.0625 71.851562 177.746094 71.726562 179.714844 C 71.613281 181.679688 69.898438 183.183594 67.960938 183.058594 C 18.859375 180.1875 11.511719 143.351562 6.15625 116.472656 C 4.539062 108.414062 3.035156 100.800781 0.648438 95.253906 C 0.0625 93.902344 0.371094 92.339844 1.417969 91.308594 C 2.460938 90.277344 4.039062 89.984375 5.375 90.582031 C 20.15625 97.148438 27.878906 99.074219 34.683594 100.761719 C 42.417969 102.671875 49.113281 104.34375 62.804688 112.164062 C 88.246094 126.679688 89.542969 141.289062 89.585938 181.429688 C 89.585938 183.394531 87.980469 184.996094 86.015625 184.996094 " fill-opacity="1" fill-rule="nonzero"/></svg>